<svg width="225" height="44" viewBox="0 0 225 44" fill="none" xmlns="http://www.w3.org/2000/svg">
<path d="M203.344 30.0087H210.682C210.761 32.2758 211.059 33.827 211.577 34.6622C212.133 35.4974 212.949 35.915 214.023 35.915C216.011 35.915 217.006 34.6821 217.006 32.2161V31.0826C217.006 29.5712 216.747 28.4775 216.23 27.8013C215.753 27.0854 214.798 26.3496 213.366 25.5939L210.98 24.2814C208.554 23.0087 206.704 21.4575 205.432 19.628C204.199 17.7984 203.582 15.4518 203.582 12.5882V11.216C203.582 7.63642 204.497 4.8722 206.326 2.92332C208.196 0.974438 210.861 0 214.321 0C217.98 0 220.645 1.07387 222.315 3.22162C223.986 5.36936 224.801 8.39211 224.761 12.2899H217.423C217.383 10.3808 217.105 9.04836 216.588 8.29267C216.111 7.49721 215.375 7.09948 214.381 7.09948C213.506 7.09948 212.809 7.41767 212.292 8.05404C211.775 8.6904 211.517 9.70462 211.517 11.0967V11.9319C211.517 13.1649 211.775 14.1393 212.292 14.8552C212.809 15.5711 213.704 16.287 214.977 17.003L217.363 18.2558C219.193 19.2501 220.665 20.2842 221.778 21.3581C222.892 22.3922 223.707 23.6053 224.224 24.9973C224.741 26.3894 225 28.0996 225 30.1281V31.6792C225 35.219 224.085 38.0031 222.256 40.0315C220.466 42.06 217.741 43.0742 214.082 43.0742C210.423 43.0742 207.719 42.0202 205.969 39.9122C204.258 37.7645 203.383 34.4633 203.344 30.0087Z" fill="#F3EFE7"/>
<path d="M178.193 0.775879H189.29C192.989 0.775879 195.833 1.94918 197.821 4.29579C199.85 6.6424 200.864 9.8839 200.864 14.0203V29.0545C200.864 33.1511 199.85 36.3926 197.821 38.779C195.833 41.1256 192.989 42.2989 189.29 42.2989H178.193V0.775879ZM189.29 34.9608C191.676 34.9608 192.87 33.0716 192.87 29.2931V13.722C192.87 9.98333 191.676 8.114 189.29 8.114H186.068V34.9608H189.29Z" fill="#F3EFE7"/>
<path d="M158.469 0.775635H167.119L175.77 42.2987H167.895L166.344 33.2304H159.006L157.454 42.2987H149.758L158.469 0.775635ZM162.704 12.2303L160.199 26.3696H165.15L162.704 12.2303Z" fill="#F3EFE7"/>
<path d="M129.64 20.0459L121.944 0.775879H130.594L134.353 12.9464L138.112 0.775879H146.345L138.648 20.0459L147.299 42.2989H138.589L133.995 28.2789L129.342 42.2989H120.989L129.64 20.0459Z" fill="#E50914"/>
<path d="M110.549 0.775879H118.424V42.2989H110.549V0.775879Z" fill="#E50914"/>
<path d="M89.917 0.775879H97.792V34.9608H108.053V42.2989H97.792H89.917V0.775879Z" fill="#E50914"/>
<path d="M70.0303 0.775879H87.3912V7.99468H77.9053V18.4948H86.9736V25.7732H77.9053V42.2989H70.0303V0.775879Z" fill="#E50914"/>
<path d="M52.7192 8.114H45.918V0.775879H67.4551V8.114H60.6539V42.2989H52.7192V8.114Z" fill="#E50914"/>
<path d="M25.2861 0.775879H43.4226V7.99468H33.0419V17.5402H42.9454V24.8187H33.0419V35.0801H43.542V42.2989H25.2861V0.775879Z" fill="#E50914"/>
<path d="M0 0.775879H7.2188L15.6905 24.3414V0.775879H22.7899V42.2989H15.5115L7.09948 18.9124V42.2989H0V0.775879Z" fill="#E50914"/>
</svg>
